<?xml version="1.0" encoding="UTF-8" standalone="no"?>
<svg
   xmlns:dc="http://purl.org/dc/elements/1.1/"
   xmlns:cc="http://creativecommons.org/ns#"
   xmlns:rdf="http://www.w3.org/1999/02/22-rdf-syntax-ns#"
   xmlns:svg="http://www.w3.org/2000/svg"
   xmlns="http://www.w3.org/2000/svg"
   xmlns:sodipodi="http://sodipodi.sourceforge.net/DTD/sodipodi-0.dtd"
   xmlns:inkscape="http://www.inkscape.org/namespaces/inkscape"
   aria-hidden="true"
   focusable="false"
   data-prefix="fas"
   data-icon="external-link-alt"
   class="svg-inline--fa fa-external-link-alt fa-w-16"
   role="img"
   viewBox="0 0 512 512"
   version="1.1"
   id="svg4017"
   sodipodi:docname="externalLink.svg"
   inkscape:version="0.92.4 (5da689c313, 2019-01-14)">
  <metadata
     id="metadata4023">
    <rdf:RDF>
      <cc:Work
         rdf:about="">
        <dc:format>image/svg+xml</dc:format>
        <dc:type
           rdf:resource="http://purl.org/dc/dcmitype/StillImage" />
      </cc:Work>
    </rdf:RDF>
  </metadata>
  <defs
     id="defs4021" />
  <sodipodi:namedview
     pagecolor="#ffffff"
     bordercolor="#666666"
     borderopacity="1"
     objecttolerance="10"
     gridtolerance="10"
     guidetolerance="10"
     inkscape:pageopacity="0"
     inkscape:pageshadow="2"
     inkscape:window-width="1366"
     inkscape:window-height="715"
     id="namedview4019"
     showgrid="false"
     inkscape:zoom="0.4609375"
     inkscape:cx="256"
     inkscape:cy="173.66014"
     inkscape:window-x="-8"
     inkscape:window-y="-8"
     inkscape:window-maximized="1"
     inkscape:current-layer="svg4017" />
  <g
     id="g4026"
     transform="matrix(0.67372882,0,0,0.63135593,91.118644,88.949157)">
    <path
       style="fill:#333333"
       id="path4015"
       d="m 432,320 h -32 a 16,16 0 0 0 -16,16 V 448 H 64 V 128 h 144 a 16,16 0 0 0 16,-16 V 80 A 16,16 0 0 0 208,64 H 48 A 48,48 0 0 0 0,112 v 352 a 48,48 0 0 0 48,48 h 352 a 48,48 0 0 0 48,-48 V 336 A 16,16 0 0 0 432,320 Z M 488,0 H 360 C 338.63,0 327.95,25.91 343,41 L 378.73,76.73 135,320.37 a 24,24 0 0 0 0,34 L 157.67,377 a 24,24 0 0 0 34,0 L 435.28,133.32 471,169 c 15,15 41,4.5 41,-17 V 24 A 24,24 0 0 0 488,0 Z"
       inkscape:connector-curvature="0" />
  </g>
</svg>
