<?xml version="1.0" encoding="UTF-8" standalone="no"?>
<!-- Generator: Adobe Illustrator 19.0.0, SVG Export Plug-In . SVG Version: 6.00 Build 0)  -->

<svg
   xmlns:dc="http://purl.org/dc/elements/1.1/"
   xmlns:cc="http://creativecommons.org/ns#"
   xmlns:rdf="http://www.w3.org/1999/02/22-rdf-syntax-ns#"
   xmlns:svg="http://www.w3.org/2000/svg"
   xmlns="http://www.w3.org/2000/svg"
   xmlns:sodipodi="http://sodipodi.sourceforge.net/DTD/sodipodi-0.dtd"
   xmlns:inkscape="http://www.inkscape.org/namespaces/inkscape"
   version="1.1"
   id="Capa_1"
   x="0px"
   y="0px"
   viewBox="0 0 53.255 53.255"
   style="enable-background:new 0 0 53.255 53.255;"
   xml:space="preserve"
   sodipodi:docname="pencil2.svg"
   inkscape:version="0.92.4 (5da689c313, 2019-01-14)"><metadata
   id="metadata3888"><rdf:RDF><cc:Work
       rdf:about=""><dc:format>image/svg+xml</dc:format><dc:type
         rdf:resource="http://purl.org/dc/dcmitype/StillImage" /><dc:title></dc:title></cc:Work></rdf:RDF></metadata><defs
   id="defs3886" /><sodipodi:namedview
   pagecolor="#ffffff"
   bordercolor="#666666"
   borderopacity="1"
   objecttolerance="10"
   gridtolerance="10"
   guidetolerance="10"
   inkscape:pageopacity="0"
   inkscape:pageshadow="2"
   inkscape:window-width="1366"
   inkscape:window-height="715"
   id="namedview3884"
   showgrid="false"
   inkscape:zoom="7.2496535"
   inkscape:cx="13.415355"
   inkscape:cy="27.140392"
   inkscape:window-x="-8"
   inkscape:window-y="-8"
   inkscape:window-maximized="1"
   inkscape:current-layer="Capa_1" />
<path
   style="fill:#d75a4a;stroke-width:0.73828852"
   d="m 34.885008,7.7864323 c 2.393064,-2.2229018 6.273748,-2.2229018 8.666811,0 2.393063,2.2229007 2.393063,5.8276447 0,8.0505467 z"
   id="path3831"
   inkscape:connector-curvature="0" />
<polygon
   style="fill:#ed8a19"
   points="44.548,20.02 42.426,17.899 16.512,43.814 15.982,48.587 44.548,20.02 "
   id="polygon3833"
   transform="matrix(0.76602523,0,0,0.71155617,4.5519417,6.1192558)" />
<polygon
   style="fill:#ed8a19"
   points="10.855,38.157 10.325,42.93 15.098,42.4 41.012,16.485 36.77,12.243 "
   id="polygon3835"
   transform="matrix(0.76602523,0,0,0.71155617,4.5519417,6.1192558)" />
<polygon
   style="fill:#ed8a19"
   points="9.441,36.743 35.356,10.829 33.234,8.707 4.668,37.273 "
   id="polygon3837"
   transform="matrix(0.76602523,0,0,0.71155617,4.5519417,6.1192558)" />
<polygon
   style="fill:#c7cac7"
   points="37.476,4.465 37.477,4.465 48.79,15.778 50.912,13.657 39.598,2.343 "
   id="polygon3839"
   transform="matrix(0.76602523,0,0,0.71155617,4.5519417,6.1192558)" />
<polygon
   style="fill:#c7cac7"
   points="45.962,18.606 45.962,18.606 47.376,17.192 47.376,17.192 36.062,5.879 34.648,7.293 "
   id="polygon3841"
   transform="matrix(0.76602523,0,0,0.71155617,4.5519417,6.1192558)" />
<path
   style="fill:#fbce9d;stroke-width:0.73828852"
   d="m 15.601089,37.774967 -3.92358,0.404876 c -0.02758,0.0028 -0.05591,0.0043 -0.0835,0.0043 0,0 -7.66e-4,0 -7.66e-4,0 v 0 0 c -7.67e-4,0 -7.67e-4,0 -7.67e-4,0 -0.02758,0 -0.05591,-0.0014 -0.08349,-0.0043 -0.02987,-0.0028 -0.05439,-0.0185 -0.08273,-0.0249 -0.05516,-0.01212 -0.108014,-0.0249 -0.158567,-0.04768 -0.0383,-0.01708 -0.07124,-0.03772 -0.105704,-0.05978 -0.04365,-0.02846 -0.0835,-0.05906 -0.120269,-0.09536 -0.0291,-0.02846 -0.05286,-0.05764 -0.0766,-0.09037 -0.0291,-0.04056 -0.05286,-0.08254 -0.07277,-0.128795 -0.01685,-0.03842 -0.02911,-0.07614 -0.0383,-0.117401 -0.0053,-0.02277 -0.01838,-0.04198 -0.02145,-0.06546 -0.0031,-0.02704 0.0076,-0.05194 0.0076,-0.07828 0,-0.02703 -0.01068,-0.05123 -0.0076,-0.07828 l 0.435867,-3.644591 -3.92358,0.404876 c -0.028347,0.0028 -0.057456,0.0043 -0.085024,0.0043 -0.060525,0 -0.1164383,-0.01708 -0.1738881,-0.02988 l -2.1954179,8.56431 1.613249,-1.498536 c 0.2995157,-0.278219 0.7836429,-0.278219 1.0831586,0 0.2995172,0.278219 0.2995172,0.727921 0,1.006139 l -1.6132596,1.498517 9.215283,-2.037898 c -0.01992,-0.07756 -0.03294,-0.157964 -0.02299,-0.241217 z"
   id="path3843"
   inkscape:connector-curvature="0" />
<path
   style="fill:#38454f;stroke-width:0.73828852"
   d="m 7.5869331,41.193995 c -0.2995156,-0.27822 -0.7836428,-0.27822 -1.0831585,0 l -1.613249,1.498536 -0.3385839,1.320648 1.4217424,-0.314507 1.613249,-1.498539 c 0.298751,-0.278218 0.298751,-0.72792 0,-1.006138 z"
   id="path3845"
   inkscape:connector-curvature="0" />
<polygon
   style="fill:#f2ecbf"
   points="36.062,5.879 47.376,17.192 47.376,17.192 48.79,15.778 37.477,4.465 37.476,4.465 36.062,5.879 "
   id="polygon3847"
   transform="matrix(0.76602523,0,0,0.71155617,4.5519417,6.1192558)" />
<path
   style="fill:#ebba16;stroke-width:0.73828852"
   d="M 35.968169,17.849259 16.117391,36.289237 12.461152,36.666362 12.867145,33.270105 32.718689,14.830839 31.63553,13.824698 11.783986,32.263963 8.1277469,32.641089 7.2598404,33.447282 7.0851876,34.128242 c 0.057456,0.01277 0.1126069,0.02988 0.1738881,0.02988 0.027583,0 0.056677,-0.0014 0.085024,-0.0043 l 3.9235793,-0.404876 -0.435868,3.644591 c -0.0031,0.02703 0.0076,0.05194 0.0076,0.07828 0,0.02704 -0.01068,0.05123 -0.0076,0.07828 0.0031,0.02348 0.01609,0.0427 0.02145,0.06546 0.0092,0.04056 0.02221,0.07969 0.0383,0.117401 0.01992,0.04554 0.04365,0.08824 0.07277,0.128794 0.02299,0.03201 0.04825,0.06261 0.0766,0.09037 0.03601,0.03558 0.0766,0.06688 0.12027,0.09536 0.0337,0.02206 0.06817,0.04341 0.105704,0.05978 0.04979,0.02206 0.103417,0.03558 0.158567,0.04768 0.0291,0.0064 0.05286,0.02134 0.08273,0.0249 0.02758,0.0028 0.05516,0.0043 0.0835,0.0043 h 7.66e-4 v 0 h 7.66e-4 7.66e-4 c 0,0 7.67e-4,0 7.67e-4,0 v 0 c 0.02681,0 0.05516,-0.0014 0.08349,-0.0043 l 3.923581,-0.404875 -0.435868,3.64459 c -0.0099,0.08396 0.003,0.163659 0.02299,0.241217 l 0.737681,-0.162916 0.867906,-0.80548 0.405995,-3.396258 19.850777,-18.439979 z"
   id="path3849"
   inkscape:connector-curvature="0" />
<polygon
   style="fill:#f2ecbf"
   points="33.234,8.707 35.356,10.829 36.77,12.243 41.012,16.485 42.426,17.899 44.548,20.02 44.548,20.02 45.962,18.606 34.648,7.293 33.234,8.707 "
   id="polygon3851"
   transform="matrix(0.76602523,0,0,0.71155617,4.5519417,6.1192558)" />
<g
   id="g3853">
</g>
<g
   id="g3855">
</g>
<g
   id="g3857">
</g>
<g
   id="g3859">
</g>
<g
   id="g3861">
</g>
<g
   id="g3863">
</g>
<g
   id="g3865">
</g>
<g
   id="g3867">
</g>
<g
   id="g3869">
</g>
<g
   id="g3871">
</g>
<g
   id="g3873">
</g>
<g
   id="g3875">
</g>
<g
   id="g3877">
</g>
<g
   id="g3879">
</g>
<g
   id="g3881">
</g>
</svg>