<?xml version="1.0" encoding="UTF-8" standalone="no"?>
<!-- Generator: Adobe Illustrator 19.0.0, SVG Export Plug-In . SVG Version: 6.00 Build 0)  -->

<svg
   xmlns:dc="http://purl.org/dc/elements/1.1/"
   xmlns:cc="http://creativecommons.org/ns#"
   xmlns:rdf="http://www.w3.org/1999/02/22-rdf-syntax-ns#"
   xmlns:svg="http://www.w3.org/2000/svg"
   xmlns="http://www.w3.org/2000/svg"
   xmlns:sodipodi="http://sodipodi.sourceforge.net/DTD/sodipodi-0.dtd"
   xmlns:inkscape="http://www.inkscape.org/namespaces/inkscape"
   version="1.1"
   id="Capa_1"
   x="0px"
   y="0px"
   viewBox="0 0 53.255 53.255"
   style="enable-background:new 0 0 53.255 53.255;"
   xml:space="preserve"
   sodipodi:docname="pencilRight.svg"
   inkscape:version="0.92.4 (5da689c313, 2019-01-14)"><metadata
   id="metadata3888"><rdf:RDF><cc:Work
       rdf:about=""><dc:format>image/svg+xml</dc:format><dc:type
         rdf:resource="http://purl.org/dc/dcmitype/StillImage" /><dc:title></dc:title></cc:Work></rdf:RDF></metadata><defs
   id="defs3886" /><sodipodi:namedview
   pagecolor="#ffffff"
   bordercolor="#666666"
   borderopacity="1"
   objecttolerance="10"
   gridtolerance="10"
   guidetolerance="10"
   inkscape:pageopacity="0"
   inkscape:pageshadow="2"
   inkscape:window-width="1366"
   inkscape:window-height="715"
   id="namedview3884"
   showgrid="false"
   inkscape:zoom="7.2496535"
   inkscape:cx="13.415355"
   inkscape:cy="30.417806"
   inkscape:window-x="-8"
   inkscape:window-y="-8"
   inkscape:window-maximized="1"
   inkscape:current-layer="Capa_1" />










<g
   id="g4003"
   transform="rotate(-90,28.052876,23.066122)"><path
     inkscape:connector-curvature="0"
     id="path3831"
     d="m 37.417484,5.5976359 c 2.255507,-2.247176 5.913124,-2.247176 8.168629,0 2.255507,2.247176 2.255507,5.8912851 0,8.1384611 z"
     style="fill:#d75a4a;stroke-width:0.72065854" /><polygon
     transform="matrix(0.72199294,0,0,0.71932657,8.8280083,3.9122535)"
     id="polygon3833"
     points="16.512,43.814 15.982,48.587 44.548,20.02 42.426,17.899 "
     style="fill:#ed8a19" /><polygon
     transform="matrix(0.72199294,0,0,0.71932657,8.8280074,3.9122538)"
     id="polygon3835"
     points="15.098,42.4 41.012,16.485 36.77,12.243 10.855,38.157 10.325,42.93 "
     style="fill:#ed8a19" /><polygon
     transform="matrix(0.72199294,0,0,0.71932657,8.8280085,3.9122534)"
     id="polygon3837"
     points="33.234,8.707 4.668,37.273 9.441,36.743 35.356,10.829 "
     style="fill:#ed8a19" /><polygon
     transform="matrix(0.72199294,0,0,0.71932657,8.8280094,3.9122536)"
     id="polygon3839"
     points="48.79,15.778 50.912,13.657 39.598,2.343 37.476,4.465 37.477,4.465 "
     style="fill:#c7cac7" /><polygon
     transform="matrix(0.72199294,0,0,0.71932657,8.8280081,3.912254)"
     id="polygon3841"
     points="45.962,18.606 47.376,17.192 36.062,5.879 34.648,7.293 "
     style="fill:#c7cac7" /><path
     inkscape:connector-curvature="0"
     id="path3843"
     d="m 19.242034,35.913655 -3.698047,0.409297 c -0.02599,0.0028 -0.05269,0.0043 -0.0787,0.0043 0,0 -7.22e-4,0 -7.22e-4,0 v 0 0 c -7.23e-4,0 -7.23e-4,0 -7.23e-4,0 -0.02599,0 -0.05269,-0.0014 -0.07869,-0.0043 -0.02816,-0.0028 -0.05126,-0.0187 -0.07797,-0.02517 -0.05199,-0.01225 -0.101805,-0.02517 -0.149452,-0.0482 -0.0361,-0.01727 -0.06715,-0.03813 -0.09963,-0.06043 -0.04115,-0.02877 -0.0787,-0.05971 -0.113356,-0.0964 -0.02742,-0.02877 -0.04982,-0.05827 -0.07219,-0.09136 -0.02742,-0.041 -0.04982,-0.08344 -0.06859,-0.130201 -0.01589,-0.03884 -0.02743,-0.07697 -0.0361,-0.118683 -0.005,-0.02302 -0.01733,-0.04244 -0.02022,-0.06617 -0.0029,-0.02734 0.0071,-0.05251 0.0071,-0.07914 0,-0.02733 -0.01007,-0.05179 -0.0071,-0.07914 l 0.410813,-3.684391 -3.698047,0.409298 c -0.02672,0.0028 -0.05415,0.0043 -0.08014,0.0043 -0.05705,0 -0.109745,-0.01727 -0.163893,-0.03021 l -2.069222,8.657835 1.520517,-1.5149 c 0.282299,-0.281257 0.738598,-0.281257 1.020897,0 0.282301,0.281257 0.282301,0.73587 0,1.017126 l -1.520529,1.514932 8.685574,-2.060152 c -0.01878,-0.07841 -0.03105,-0.159689 -0.02166,-0.243851 z"
     style="fill:#fbce9d;stroke-width:0.72065854" /><path
     inkscape:connector-curvature="0"
     id="path3845"
     d="m 11.688545,39.370019 c -0.282299,-0.281259 -0.738598,-0.281259 -1.020898,0 l -1.520517,1.514901 -0.319122,1.335071 1.340019,-0.317942 1.520518,-1.514904 c 0.281578,-0.281257 0.281578,-0.73587 0,-1.017126 z"
     style="fill:#38454f;stroke-width:0.72065854" /><polygon
     transform="matrix(0.72199294,0,0,0.71932657,8.8280093,3.9122538)"
     id="polygon3847"
     points="47.376,17.192 48.79,15.778 37.477,4.465 37.476,4.465 36.062,5.879 "
     style="fill:#f2ecbf" /><path
     inkscape:connector-curvature="0"
     id="path3849"
     d="M 38.438384,15.770352 19.72866,34.4117 16.282586,34.792942 16.665242,31.359597 35.37569,12.718969 34.354791,11.701841 15.644343,30.342469 l -3.446071,0.381243 -0.818019,0.814998 -0.164614,0.688395 c 0.05415,0.01291 0.106135,0.03021 0.163893,0.03021 0.026,0 0.05342,-0.0014 0.08014,-0.0043 l 3.698046,-0.409298 -0.410814,3.684391 c -0.0029,0.02733 0.0071,0.05251 0.0071,0.07914 0,0.02734 -0.01007,0.05179 -0.0071,0.07914 0.0029,0.02374 0.01516,0.04317 0.02022,0.06617 0.0086,0.041 0.02093,0.08056 0.0361,0.118683 0.01878,0.04604 0.04115,0.0892 0.06859,0.1302 0.02167,0.03236 0.04547,0.06329 0.07219,0.09136 0.03394,0.03597 0.0722,0.06761 0.113358,0.0964 0.03176,0.0223 0.06425,0.04388 0.09963,0.06043 0.04692,0.0223 0.09747,0.03597 0.149453,0.0482 0.02742,0.0065 0.04982,0.02157 0.07797,0.02517 0.02599,0.0028 0.05199,0.0043 0.07871,0.0043 h 7.21e-4 v 0 h 7.22e-4 7.22e-4 c 0,0 7.23e-4,0 7.23e-4,0 v 0 c 0.02527,0 0.05199,-0.0014 0.07869,-0.0043 l 3.698048,-0.409295 -0.410813,3.68439 c -0.0093,0.08488 0.0028,0.165446 0.02166,0.243851 l 0.695278,-0.164696 0.818017,-0.814275 0.382658,-3.433346 18.709724,-18.64135 z"
     style="fill:#ebba16;stroke-width:0.72065854" /><polygon
     transform="matrix(0.72199294,0,0,0.71932657,8.8280079,3.9122543)"
     id="polygon3851"
     points="44.548,20.02 45.962,18.606 34.648,7.293 33.234,8.707 35.356,10.829 36.77,12.243 41.012,16.485 42.426,17.899 "
     style="fill:#f2ecbf" /></g>
<g
   id="g3853">
</g>
<g
   id="g3855">
</g>
<g
   id="g3857">
</g>
<g
   id="g3859">
</g>
<g
   id="g3861">
</g>
<g
   id="g3863">
</g>
<g
   id="g3865">
</g>
<g
   id="g3867">
</g>
<g
   id="g3869">
</g>
<g
   id="g3871">
</g>
<g
   id="g3873">
</g>
<g
   id="g3875">
</g>
<g
   id="g3877">
</g>
<g
   id="g3879">
</g>
<g
   id="g3881">
</g>
</svg>