<?xml version="1.0" encoding="UTF-8" standalone="no"?>
<!-- Generator: Adobe Illustrator 19.0.0, SVG Export Plug-In . SVG Version: 6.00 Build 0)  -->

<svg
   xmlns:dc="http://purl.org/dc/elements/1.1/"
   xmlns:cc="http://creativecommons.org/ns#"
   xmlns:rdf="http://www.w3.org/1999/02/22-rdf-syntax-ns#"
   xmlns:svg="http://www.w3.org/2000/svg"
   xmlns="http://www.w3.org/2000/svg"
   xmlns:sodipodi="http://sodipodi.sourceforge.net/DTD/sodipodi-0.dtd"
   xmlns:inkscape="http://www.inkscape.org/namespaces/inkscape"
   version="1.1"
   id="Capa_1"
   x="0px"
   y="0px"
   viewBox="0 0 512.001 512.001"
   style="enable-background:new 0 0 512.001 512.001;"
   xml:space="preserve"
   sodipodi:docname="planIcon.svg"
   inkscape:version="0.92.4 (5da689c313, 2019-01-14)"><metadata
   id="metadata4288"><rdf:RDF><cc:Work
       rdf:about=""><dc:format>image/svg+xml</dc:format><dc:type
         rdf:resource="http://purl.org/dc/dcmitype/StillImage" /><dc:title /></cc:Work></rdf:RDF></metadata><defs
   id="defs4286" /><sodipodi:namedview
   pagecolor="#ffffff"
   bordercolor="#666666"
   borderopacity="1"
   objecttolerance="10"
   gridtolerance="10"
   guidetolerance="10"
   inkscape:pageopacity="0"
   inkscape:pageshadow="2"
   inkscape:window-width="1366"
   inkscape:window-height="715"
   id="namedview4284"
   showgrid="false"
   inkscape:zoom="0.65186282"
   inkscape:cx="276.63222"
   inkscape:cy="222.59777"
   inkscape:window-x="-8"
   inkscape:window-y="-8"
   inkscape:window-maximized="1"
   inkscape:current-layer="Capa_1" />
<g
   id="g4173"
   transform="matrix(0.64542751,0,0,0.61948069,93.838864,88.975772)">
	<g
   id="g4171">
		<path
   d="M 400.003,152 H 256.001 c -5.523,0 -10,4.477 -10,10 0,5.523 4.477,10 10,10 h 144.002 c 5.523,0 10,-4.477 10,-10 0,-5.523 -4.477,-10 -10,-10 z"
   id="path4169"
   inkscape:connector-curvature="0" />
	</g>
</g>
<g
   id="g4179"
   transform="matrix(0.64542751,0,0,0.61948069,93.838864,88.975772)">
	<g
   id="g4177">
		<path
   d="m 365.011,202.931 c -1.86,-1.86 -4.44,-2.93 -7.07,-2.93 -2.63,0 -5.21,1.07 -7.07,2.93 -1.86,1.86 -2.93,4.44 -2.93,7.07 0,2.63 1.07,5.21 2.93,7.07 1.86,1.86 4.44,2.93 7.07,2.93 2.63,0 5.21,-1.07 7.07,-2.93 1.86,-1.86 2.93,-4.44 2.93,-7.07 0,-2.63 -1.07,-5.21 -2.93,-7.07 z"
   id="path4175"
   inkscape:connector-curvature="0" />
	</g>
</g>
<g
   id="g4185"
   transform="matrix(0.64542751,0,0,0.61948069,93.838864,88.975772)">
	<g
   id="g4183">
		<path
   d="m 263.061,45.931 c -1.86,-1.86 -4.44,-2.93 -7.07,-2.93 -2.63,0 -5.21,1.07 -7.07,2.93 -1.86,1.86 -2.93,4.44 -2.93,7.07 0,2.63 1.07,5.21 2.93,7.07 1.86,1.86 4.44,2.93 7.07,2.93 2.63,0 5.21,-1.07 7.07,-2.93 1.86,-1.86 2.93,-4.44 2.93,-7.07 0,-2.63 -1.07,-5.21 -2.93,-7.07 z"
   id="path4181"
   inkscape:connector-curvature="0" />
	</g>
</g>
<g
   id="g4191"
   transform="matrix(0.64542751,0,0,0.61948069,93.838864,88.975772)">
	<g
   id="g4189">
		<path
   d="m 315.878,200 h -59.877 c -5.523,0 -10,4.477 -10,10 0,5.523 4.477,10 10,10 h 59.877 c 5.523,0 10,-4.477 10,-10 0,-5.523 -4.477,-10 -10,-10 z"
   id="path4187"
   inkscape:connector-curvature="0" />
	</g>
</g>
<g
   id="g4197"
   transform="matrix(0.64542751,0,0,0.61948069,93.838864,88.975772)">
	<g
   id="g4195">
		<path
   d="M 400.003,260 H 256.001 c -5.523,0 -10,4.477 -10,10 0,5.523 4.477,10 10,10 h 144.002 c 5.523,0 10,-4.477 10,-10 0,-5.523 -4.477,-10 -10,-10 z"
   id="path4193"
   inkscape:connector-curvature="0" />
	</g>
</g>
<g
   id="g4203"
   transform="matrix(0.64542751,0,0,0.61948069,93.838864,88.975772)">
	<g
   id="g4201">
		<path
   d="m 365.011,310.931 c -1.86,-1.86 -4.44,-2.93 -7.07,-2.93 -2.63,0 -5.21,1.07 -7.07,2.93 -1.86,1.86 -2.93,4.44 -2.93,7.07 0,2.63 1.07,5.21 2.93,7.07 1.86,1.86 4.44,2.93 7.07,2.93 2.63,0 5.21,-1.07 7.07,-2.93 1.86,-1.86 2.93,-4.44 2.93,-7.07 0,-2.63 -1.07,-5.21 -2.93,-7.07 z"
   id="path4199"
   inkscape:connector-curvature="0" />
	</g>
</g>
<g
   id="g4209"
   transform="matrix(0.64542751,0,0,0.61948069,93.838864,88.975772)">
	<g
   id="g4207">
		<path
   d="m 315.878,308 h -59.877 c -5.523,0 -10,4.477 -10,10 0,5.523 4.477,10 10,10 h 59.877 c 5.523,0 10,-4.477 10,-10 0,-5.523 -4.477,-10 -10,-10 z"
   id="path4205"
   inkscape:connector-curvature="0" />
	</g>
</g>
<g
   id="g4215"
   transform="matrix(0.64542751,0,0,0.61948069,93.838864,88.975772)">
	<g
   id="g4213">
		<path
   d="M 400.003,368 H 256.001 c -5.523,0 -10,4.477 -10,10 0,5.523 4.477,10 10,10 h 144.002 c 5.523,0 10,-4.477 10,-10 0,-5.523 -4.477,-10 -10,-10 z"
   id="path4211"
   inkscape:connector-curvature="0" />
	</g>
</g>
<g
   id="g4221"
   transform="matrix(0.64542751,0,0,0.61948069,93.838864,88.975772)">
	<g
   id="g4219">
		<path
   d="m 365.011,418.931 c -1.86,-1.86 -4.44,-2.93 -7.07,-2.93 -2.63,0 -5.21,1.07 -7.07,2.93 -1.86,1.86 -2.93,4.44 -2.93,7.07 0,2.63 1.07,5.21 2.93,7.07 1.86,1.86 4.44,2.93 7.07,2.93 2.63,0 5.21,-1.07 7.07,-2.93 1.86,-1.86 2.93,-4.44 2.93,-7.07 0,-2.63 -1.07,-5.21 -2.93,-7.07 z"
   id="path4217"
   inkscape:connector-curvature="0" />
	</g>
</g>
<g
   id="g4227"
   transform="matrix(0.64542751,0,0,0.61948069,93.838864,88.975772)">
	<g
   id="g4225">
		<path
   d="m 315.878,416 h -59.877 c -5.523,0 -10,4.477 -10,10 0,5.523 4.477,10 10,10 h 59.877 c 5.523,0 10,-4.477 10,-10 0,-5.523 -4.477,-10 -10,-10 z"
   id="path4223"
   inkscape:connector-curvature="0" />
	</g>
</g>
<g
   id="g4233"
   transform="matrix(0.64542751,0,0,0.61948069,93.838864,88.975772)">
	<g
   id="g4231">
		<path
   d="M 419.243,39.001 H 342.864 C 331.823,28.48 316.898,22 300.479,22 h -8.76 C 285.022,8.742 271.263,0 256,0 240.737,0 226.979,8.742 220.281,22 H 211.5 c -16.419,0 -31.343,6.48 -42.384,17.001 H 92.759 c -26.885,0 -48.758,21.873 -48.758,48.758 v 375.484 c 0,26.885 21.873,48.758 48.758,48.758 h 326.483 c 26.885,0 48.758,-21.873 48.758,-48.758 V 87.759 C 468.001,60.874 446.128,39.001 419.243,39.001 Z M 211.501,42 h 15.586 c 4.498,0 8.442,-3.003 9.639,-7.338 C 239.111,26.029 247.037,20 256.001,20 c 8.964,0 16.89,6.029 19.274,14.662 1.197,4.335 5.142,7.338 9.639,7.338 h 15.565 c 21.705,0 39.571,16.75 41.354,38.001 H 170.147 C 171.93,58.75 189.797,42 211.501,42 Z m 236.5,421.244 c 0,15.857 -12.901,28.758 -28.758,28.758 H 92.759 c -15.857,0 -28.758,-12.901 -28.758,-28.758 V 87.759 c 0,-15.857 12.901,-28.758 28.758,-28.758 h 62.347 c -3.276,7.512 -5.105,15.794 -5.105,24.5 v 6.5 c 0,5.523 4.477,10 10,10 H 351.98 c 5.523,0 10,-4.477 10,-10 v -6.5 c 0,-8.705 -1.829,-16.988 -5.105,-24.5 h 62.368 c 15.857,0 28.758,12.901 28.758,28.758 z"
   id="path4229"
   inkscape:connector-curvature="0" />
	</g>
</g>
<g
   id="g4239"
   transform="matrix(0.64542751,0,0,0.61948069,93.838864,88.975772)">
	<g
   id="g4237">
		<path
   d="m 192.41,149.596 c -3.905,-3.905 -10.237,-3.905 -14.142,-0.001 l -42.762,42.763 -13.173,-13.174 c -3.905,-3.904 -10.237,-3.904 -14.143,0 -3.905,3.905 -3.905,10.237 0,14.143 l 20.245,20.245 c 1.953,1.953 4.512,2.929 7.071,2.929 2.559,0 5.119,-0.976 7.071,-2.929 l 49.833,-49.833 c 3.905,-3.905 3.905,-10.237 0,-14.143 z"
   id="path4235"
   inkscape:connector-curvature="0" />
	</g>
</g>
<g
   id="g4245"
   transform="matrix(0.64542751,0,0,0.61948069,93.838864,88.975772)">
	<g
   id="g4243">
		<path
   d="m 168.001,368 h -48 c -5.523,0 -10,4.477 -10,10 v 48 c 0,5.523 4.477,10 10,10 h 48 c 5.523,0 10,-4.477 10,-10 v -48 c 0,-5.523 -4.477,-10 -10,-10 z m -10,48 h -28 v -28 h 28 z"
   id="path4241"
   inkscape:connector-curvature="0" />
	</g>
</g>
<g
   id="g4251"
   transform="matrix(0.64542751,0,0,0.61948069,93.838864,88.975772)">
	<g
   id="g4249">
		<path
   d="m 168.001,260 h -48 c -5.523,0 -10,4.477 -10,10 v 48 c 0,5.523 4.477,10 10,10 h 48 c 5.523,0 10,-4.477 10,-10 v -48 c 0,-5.523 -4.477,-10 -10,-10 z m -10,48 h -28 v -28 h 28 z"
   id="path4247"
   inkscape:connector-curvature="0" />
	</g>
</g>
<g
   id="g4253">
</g>
<g
   id="g4255">
</g>
<g
   id="g4257">
</g>
<g
   id="g4259">
</g>
<g
   id="g4261">
</g>
<g
   id="g4263">
</g>
<g
   id="g4265">
</g>
<g
   id="g4267">
</g>
<g
   id="g4269">
</g>
<g
   id="g4271">
</g>
<g
   id="g4273">
</g>
<g
   id="g4275">
</g>
<g
   id="g4277">
</g>
<g
   id="g4279">
</g>
<g
   id="g4281">
</g>
</svg>