<?xml version="1.0" encoding="UTF-8" standalone="no"?>
<!-- Generator: Adobe Illustrator 19.0.0, SVG Export Plug-In . SVG Version: 6.00 Build 0)  -->

<svg
   xmlns:dc="http://purl.org/dc/elements/1.1/"
   xmlns:cc="http://creativecommons.org/ns#"
   xmlns:rdf="http://www.w3.org/1999/02/22-rdf-syntax-ns#"
   xmlns:svg="http://www.w3.org/2000/svg"
   xmlns="http://www.w3.org/2000/svg"
   xmlns:sodipodi="http://sodipodi.sourceforge.net/DTD/sodipodi-0.dtd"
   xmlns:inkscape="http://www.inkscape.org/namespaces/inkscape"
   version="1.1"
   id="Capa_1"
   x="0px"
   y="0px"
   viewBox="0 0 512 512"
   style="enable-background:new 0 0 512 512;"
   xml:space="preserve"
   sodipodi:docname="previewIocn.svg"
   inkscape:version="0.92.4 (5da689c313, 2019-01-14)"><metadata
   id="metadata142"><rdf:RDF><cc:Work
       rdf:about=""><dc:format>image/svg+xml</dc:format><dc:type
         rdf:resource="http://purl.org/dc/dcmitype/StillImage" /><dc:title></dc:title></cc:Work></rdf:RDF></metadata><defs
   id="defs140" /><sodipodi:namedview
   pagecolor="#ffffff"
   bordercolor="#666666"
   borderopacity="1"
   objecttolerance="10"
   gridtolerance="10"
   guidetolerance="10"
   inkscape:pageopacity="0"
   inkscape:pageshadow="2"
   inkscape:window-width="1366"
   inkscape:window-height="715"
   id="namedview138"
   showgrid="false"
   inkscape:zoom="0.53320313"
   inkscape:cx="190.10499"
   inkscape:cy="169.78056"
   inkscape:window-x="-8"
   inkscape:window-y="-8"
   inkscape:window-maximized="1"
   inkscape:current-layer="Capa_1" />
<g
   id="g81"
   transform="matrix(0.48860094,0,0,0.48828125,138.8698,117.58974)">
	<g
   id="g79">
		<path
   d="m 431.212,378.94 c 30.82,-41.098 27.558,-99.829 -9.799,-137.186 -8.744,-8.743 -18.661,-15.613 -29.246,-20.622 V 128.787 L 263.382,0 H 0.168 v 512 h 392 V 410.868 c 6.203,-2.935 12.175,-6.512 17.817,-10.729 l 80.518,81.409 21.33,-21.096 z M 272.168,51.213 340.955,120 h -68.787 z m 90,430.787 h -332 V 30 h 212 v 120 h 120 v 62.118 c -31.637,-4.529 -64.959,5.349 -89.246,29.636 -40.939,40.939 -40.939,107.553 0,148.492 24.005,24.005 57.199,34.223 89.246,29.636 z m 38.034,-112.967 c -29.243,29.241 -76.824,29.241 -106.066,0 -29.242,-29.243 -29.242,-76.824 0,-106.066 29.242,-29.242 76.822,-29.244 106.066,0 29.242,29.242 29.242,76.824 0,106.066 z"
   id="path77"
   inkscape:connector-curvature="0" />
	</g>
</g>
<g
   id="g87"
   transform="matrix(0.48860094,0,0,0.48828125,138.8698,117.58974)">
	<g
   id="g85">
		<rect
   x="60.169998"
   y="181"
   width="212"
   height="30"
   id="rect83" />
	</g>
</g>
<g
   id="g93"
   transform="matrix(0.48860094,0,0,0.48828125,138.8698,117.58974)">
	<g
   id="g91">
		<rect
   x="60.169998"
   y="241"
   width="152"
   height="30"
   id="rect89" />
	</g>
</g>
<g
   id="g99"
   transform="matrix(0.48860094,0,0,0.48828125,138.8698,117.58974)">
	<g
   id="g97">
		<rect
   x="60.169998"
   y="361"
   width="152"
   height="30"
   id="rect95" />
	</g>
</g>
<g
   id="g105"
   transform="matrix(0.48860094,0,0,0.48828125,138.8698,117.58974)">
	<g
   id="g103">
		<rect
   x="60.169998"
   y="301"
   width="152"
   height="30"
   id="rect101" />
	</g>
</g>
<g
   id="g107">
</g>
<g
   id="g109">
</g>
<g
   id="g111">
</g>
<g
   id="g113">
</g>
<g
   id="g115">
</g>
<g
   id="g117">
</g>
<g
   id="g119">
</g>
<g
   id="g121">
</g>
<g
   id="g123">
</g>
<g
   id="g125">
</g>
<g
   id="g127">
</g>
<g
   id="g129">
</g>
<g
   id="g131">
</g>
<g
   id="g133">
</g>
<g
   id="g135">
</g>
</svg>